<svg xmlns="http://www.w3.org/2000/svg" viewBox="0 0 448 512" width="448" height="512">
  <path fill="#2C2A3D" d="M208.1 256H72c-8.9 0-16.1-7.2-16.1-16.1V72c0-8.9 7.2-16.1 16.1-16.1h136.1c8.9 0 16.1 7.2 16.1 16.1v167.8c0 8.9-7.2 16.1-16.1 16.1zm0-223.6H72v135.6h136.1V32.4zM376 256h-136.1c-8.9 0-16.1-7.2-16.1-16.1V72c0-8.9 7.2-16.1 16.1-16.1H376c8.9 0 16.1 7.2 16.1 16.1v167.8c0 8.9-7.2 16.1-16.1 16.1zm0-223.6H239.9v135.6H376V32.4zM223.9 384c-8.9 0-16.1-7.2-16.1-16.1v-135.8c0-8.9 7.2-16.1 16.1-16.1s16.1 7.2 16.1 16.1v135.8c0 8.9-7.2 16.1-16.1 16.1zm16.1 48c-8.9 0-16.1-7.2-16.1-16.1v-16c0-8.9 7.2-16.1 16.1-16.1s16.1 7.2 16.1 16.1v16c0 8.9-7.2 16.1-16.1 16.1zm0-288c-8.9 0-16.1-7.2-16.1-16.1v-16c0-8.9 7.2-16.1 16.1-16.1s16.1 7.2 16.1 16.1v16c0 8.9-7.2 16.1-16.1 16.1z"/>
</svg>
