<svg role="img" viewBox="0 0 24 24" xmlns="http://www.w3.org/2000/svg">
  <title>Lua</title>
  <path d="M.38 10.377l-.272-.037c-.048.344-.082.695-.101 1.041l.275.016c.018-.34.051-.682.098-1.02zM4.136 3.289l-.184-.205c-.258.232-.509.48-.746.734l.202.188c.231-.248.476-.49.728-.717zM5.769 2.059l-.146-.235c-.296.186-.586.385-.863.594l.166.219c.27-.203.554-.399.843-.578zM1.824 18.369c.185.297.384.586.593.863l.22-.164c-.205-.271-.399-.555-.58-.844l-.233.145zM1.127 16.402l-.255.104c.129.318.274.635.431.943l.005.01.245-.125-.005-.01c-.153-.301-.295-.611-.421-.922zM.298 9.309l.269.063c.076-.332.168-.664.272-.986l-.261-.087c-.108.332-.202.672-.28 1.01zM.274 12.42l-.275.01c.012.348.04.699.083 1.043l.273-.033c-.042-.336-.069-.68-.081-1.02zM.256 14.506c.073.34.162.682.264 1.014l.263-.08c-.1-.326-.187-.658-.258-.99l-.269.056zM11.573.275L11.563 0c-.348.012-.699.039-1.044.082l.034.273c.338-.041.68-.068 1.02-.08zM23.221 8.566c.1.326.186.66.256.992l.27-.059c-.072-.34-.16-.682-.262-1.014l-.264.081zM17.621 1.389c-.309-.164-.627-.314-.947-.449l-.107.252c.314.133.625.281.926.439l.128-.242zM15.693.572c-.332-.105-.67-.199-1.01-.277l-.063.268c.332.076.664.168.988.273l.085-.264zM6.674 1.545c.298-.15.606-.291.916-.418L7.486.873c-.317.127-.632.272-.937.428l-.015.008.125.244.015-.008zM23.727 11.588l.275-.01a11.797 11.797 0 0 0-.082-1.045l-.273.033c.041.338.068.682.08 1.022zM13.654.105c-.346-.047-.696-.08-1.043-.098l-.014.273c.339.018.683.051 1.019.098l.038-.273zM9.544.527l-.058-.27c-.34.072-.681.16-1.014.264l.081.262c.325-.099.659-.185.991-.256zM1.921 5.469l.231.15c.185-.285.384-.566.592-.834l-.217-.17c-.213.276-.417.563-.606.854zM.943 7.318l.253.107c.132-.313.28-.625.439-.924l-.243-.128c-.163.307-.314.625-.449.945zM18.223 21.943l.145.234c.295-.186.586-.385.863-.594l-.164-.219c-.272.204-.557.4-.844.579zM21.248 19.219l.217.17c.215-.273.418-.561.607-.854l-.23-.148c-.186.285-.385.564-.594.832zM19.855 20.715l.184.203c.258-.23.51-.479.746-.732l-.201-.188c-.23.248-.477.488-.729.717zM22.359 17.504l.244.129c.162-.307.314-.625.449-.945l-.254-.107a11.27 11.27 0 0 1-.439.923zM23.617 13.629l.273.039c.049-.346.082-.695.102-1.043l-.275-.014c-.018.338-.051.682-.1 1.018zM23.156 15.621l.264.086c.107-.332.201-.67.279-1.01l-.268-.063c-.077.333-.169.665-.275.987zM22.453 6.672c.154.303.297.617.424.932l.256-.104c-.131-.322-.277-.643-.436-.953l-.244.125zM8.296 23.418c.331.107.67.201 1.009.279l.062-.268c-.331-.076-.663-.168-.986-.273l-.085.262zM10.335 23.889c.345.049.696.082 1.043.102l.014-.275c-.339-.018-.682-.051-1.019-.098l-.038.271zM17.326 22.449c-.303.154-.613.297-.926.424l.104.256c.318-.131.639-.275.947-.434l.004-.002-.123-.246-.006.002zM4.613 21.467c.274.213.562.418.854.605l.149-.23c-.285-.184-.565-.385-.833-.592l-.17.217zM12.417 23.725l.009.275c.348-.014.699-.041 1.045-.084l-.035-.271c-.336.041-.68.068-1.019.08zM6.37 22.604c.307.162.625.314.946.449l.107-.254c-.313-.133-.624-.279-.924-.439l-.129.244zM3.083 20.041c.233.258.48.51.734.746l.188-.201c-.249-.23-.49-.477-.717-.729l-.205.184zM14.445 23.475l.059.27c.34-.074.68-.162 1.014-.266l-.082-.262c-.325.099-.659.185-.991.258zM21.18.129A2.689 2.689 0 1 0 21.18 5.507 2.689 2.689 0 1 0 21.18.129zM15.324 15.447c0 .471.314.66.852.66.67 0 1.297-.396 1.297-1.016v-.645c-.23.107-.379.141-1.107.24-.735.109-1.042.306-1.042.761zM12 2.818c-5.07 0-9.18 4.109-9.18 9.18 0 5.068 4.11 9.18 9.18 9.18 5.07 0 9.18-4.111 9.18-9.18 0-5.07-4.11-9.18-9.18-9.18zm-2.487 13.77H5.771v-6.023h.769v5.346h2.974v.677zm4.13 0h-.619v-.67c-.405.57-.811.793-1.446.793-.843 0-1.38-.463-1.38-1.182v-3.271h.686v3c0 .52.347.85.893.85.719 0 1.181-.578 1.181-1.461v-2.389h.686v4.33zm-.53-8.393c0-1.484 1.205-2.689 2.689-2.689s2.688 1.205 2.688 2.689-1.203 2.688-2.688 2.688-2.689-1.203-2.689-2.688zm5.567 7.856v.52c-.309-.22-.681-.37-1.079-.37-.913 0-1.616.663-1.616 1.546 0 .864.671 1.61 1.574 1.61.678 0 1.268-.297 1.674-.703.092-.094.16-.191.236-.292h.036c.11.095.226.205.347.292.237.149.529.248.827.248.574 0 1.122-.26 1.422-.674 1.045-1.393-.015-3.457-1.701-3.457-.6 0-1.132.258-1.54.694zm.02-.911c-.311 0-.61.144-.747.45-.136.303-.01.65.248.784.146.064.305.037.445-.079.139-.116.2-.33.1-.516-.116-.25-.372-.389-.618-.359zm-.369 6.868c.326-.165.61-.371.867-.602l.076.154c-.238.115-.528.18-.867.183-.454 0-.905-.122-1.25-.36v.49c.379.246.882.4 1.408.4.473 0 .894-.073 1.305-.207.199-.063.4-.136.592-.226l.05.152c-.13.059-.269.117-.419.174-.128.046-.274.083-.438.117a8.86 8.86 0 0 1-1.081.147c-.301 0-.648-.029-1.014-.096a2.756 2.756 0 0 1-1.043-.373c-.328-.191-.627-.465-.877-.786-.261-.325-.481-.672-.641-1.057-.173-.388-.255-.84-.225-1.313h.38c-.028.434.029.866.154 1.247.075.2.158.398.253.586.087.183.183.367.282.549.176.296.308.614.455.93.025.052.06.108.098.161l.182-.033c.155-.029.347-.05.545-.057zm1.087 1.454c.246-.044.484-.096.696-.162v.373c-.218.062-.455.106-.697.106a2.67 2.67 0 0 1-1.01-.234 1.49 1.49 0 0 1-.72-1.48c0-.815.678-1.484 1.516-1.484.58 0 1.09.218 1.43.57a2.658 2.658 0 0 1 .447 2.19c-.031.111-.054.218-.073.322zm-4.144-2.037c.43 0 .693-.24.693-.634v-.455h.683v.677c0 1.064-.526 1.735-1.487 1.735-.31 0-.591-.045-.853-.105v-.655c.278.058.524.09.793.09zm4.213 1.003c-.24 0-.444-.061-.629-.179-.194-.134-.298-.319-.298-.555 0-.254.113-.451.298-.586.174-.124.388-.179.629-.179.39 0 .694.204.694.629 0 .296-.178.553-.465.646a.785.785 0 0 1-.228.037zm-1.51-1.704h.607c.382 0 .679-.24.679-.634 0-.392-.296-.632-.679-.632h-.607v1.266z"/>
</svg>
