<svg xmlns="http://www.w3.org/2000/svg" viewBox="0 0 300 300" fill="#2c2d2f">
    <path d="M150 0C67.157 0 0 67.157 0 150s67.157 150 150 150 150-67.157 150-150S232.843 0 150 0zm0 285.714c-74.268 0-135.714-61.446-135.714-135.714S75.732 14.286 150 14.286 285.714 75.732 285.714 150 224.268 285.714 150 285.714z"/>
    <path d="M155.714 107.143c-9.029 0-17.198 3.587-23.233 9.985-6.427 6.53-10.038 15.715-10.038 25.129 0 9.415 3.611 18.604 10.038 25.131 6.035 6.398 14.204 9.985 23.233 9.985s17.198-3.587 23.233-9.985c6.427-6.527 10.038-15.716 10.038-25.131 0-9.414-3.611-18.598-10.038-25.129-6.035-6.398-14.204-9.985-23.233-9.985zm0 60.001c-19.756 0-35.714-16.19-35.714-35.714s15.958-35.714 35.714-35.714 35.714 16.19 35.714 35.714-15.958 35.714-35.714 35.714z"/>
    <path d="M118.286 150c0-6.045 4.514-11.286 10.714-11.286s10.714 4.741 10.714 11.286-4.514 11.286-10.714 11.286-10.714-4.741-10.714-11.286zM150 0C67.157 0 0 67.157 0 150s67.157 150 150 150 150-67.157 150-150S232.843 0 150 0zm0 285.714c-74.268 0-135.714-61.446-135.714-135.714S75.732 14.286 150 14.286 285.714 75.732 285.714 150 224.268 285.714 150 285.714z"/>
</svg>
