<svg xmlns="http://www.w3.org/2000/svg" viewBox="0 0 64 64" width="100" height="100">
  <path fill="#2C2D30" d="M32 0C14.355 0 0 14.355 0 32s14.355 32 32 32 32-14.355 32-32S49.645 0 32 0zm11.537 25.615c-1.467 0-2.646-.152-3.637-.458-2.372-.683-4.529-1.796-6.577-3.318-2.02-1.5-3.77-3.226-5.198-5.138l-.002.004c-.487-.645-1.064-1.325-1.678-2.027l-4.078 4.082c.158.268.312.517.467.776 1.23 2.193 2.842 4.078 4.577 5.5 2.562 1.813 5.418 2.669 8.528 2.669 3.043 0 5.832-.685 8.193-1.87.853-.386 1.703-.846 2.502-1.375-.025-.228-.052-.456-.086-.684a19.612 19.612 0 00-3.39-5.048c-2.49-2.35-5.641-4.457-9.07-5.97-.469-.206-.946-.409-1.453-.564.78-.747 1.621-1.552 2.53-2.056 1.755-1.052 3.595-1.794 5.499-2.21 1.261-.225 2.527-.33 3.749-.33 2.542 0 5.013.387 7.172 1.087 2.472.799 4.746 1.892 6.662 3.056l-4.094 4.082c-1.275-1.08-2.87-1.905-4.474-2.442a14.765 14.765 0 00-2.868-.394zm-8.832 7.363c-2.174 0-4.206.633-6.024 1.725-1.927 1.046-3.698 2.633-5.117 4.229l-3.073 3.05c.574.614 1.202 1.225 1.837 1.827 1.915 1.707 3.885 3.293 5.87 5.038a23.885 23.885 0 004.668 2.374c2.241.426 4.267 1.712 6.42 2.846 1.646.797 3.075 1.837 4.516 2.699 1.182.778 2.515 1.514 3.743 2.085 3.081 1.348 6.267 2.246 9.529 2.688 1.484.143 2.754-.457 3.802-1.437l-4.382-4.215c-1.548 1.044-3.273 1.263-5.045.886-2.147-.403-4.27-1.07-6.324-1.919-1.468-.623-2.708-1.543-3.906-2.391-1.888-1.465-3.612-3.15-5.368-4.743-.23-.196-.43-.404-.633-.604.142.075.283.138.434.191a11.978 11.978 0 002.03.418c.205.045.418.067.623.067.168 0 .313-.027.48-.063.394-.084.762-.239 1.095-.441.174-.095.353-.215.512-.347l.003.004c-.035-.035-.071-.069-.107-.105a4.785 4.785 0 01-.508-.495c-1.025-1.075-2.071-2.136-3.26-3.094-.907-.735-1.749-1.538-2.57-2.429-.25-.27-.467-.55-.715-.815l-4.253 4.07c-2.231-1.849-4.816-3.382-7.719-4.114-1.216-.29-2.448-.435-3.693-.435z"/>
</svg>
