<svg xmlns="http://www.w3.org/2000/svg" viewBox="0 0 64 64">
    <path fill="#306998" d="M0 0h32v32H0zM32 32h32v32H32z"/>
    <path fill="#FFD43B" d="M0 32h32v32H0zM32 0h32v32H32z"/>
    <path fill="#FFD43B" d="M23.5 36.7c1.3 0 2.3-1.1 2.3-2.5 0-1.3-1-2.5-2.3-2.5h-6V30h6c1.3 0 2.3-1.1 2.3-2.5 0-1.3-1-2.5-2.3-2.5h-6v-6h6c1.3 0 2.3-1.1 2.3-2.5 0-1.3-1-2.5-2.3-2.5h-9.5v20h9.5zM9.5 22h6.5c1.3 0 2.3-1.1 2.3-2.5 0-1.3-1-2.5-2.3-2.5H9.5v-6h6.5c1.3 0 2.3-1.1 2.3-2.5 0-1.3-1-2.5-2.3-2.5H0v20h9.5c1.3 0 2.3-1.1 2.3-2.5 0-1.3-1-2.5-2.3-2.5z"/>
</svg>
