<svg xmlns="http://www.w3.org/2000/svg" viewBox="0 0 128 128" fill="#007ACC">
    <path d="M64 12c28.25 0 52 23.75 52 52s-23.75 52-52 52-52-23.75-52-52 23.75-52 52-52zm0 10c-23.26 0-42 18.74-42 42s18.74 42 42 42 42-18.74 42-42-18.74-42-42-42zm20 19.9l-12.8 12.8 12.8 12.8 1.1-1.1L73 57l10.9-10.9zm-10.5 0l-11.7 11.7 1.1 1.1 11.7-11.7-1.1-1.1zm-16 22.4l1.1 1.1 11.7-11.7-1.1-1.1-11.7 11.7zm12.4 7.6l-1.1-1.1-12.9 12.9 1.1 1.1 12.9-12.9zm-8-45.4l-12.8 12.8 12.8 12.8 1.1-1.1L57 36l10.9-10.9zM56 78l-1.1 1.1 12.8 12.8 1.1-1.1-12.8-12.8z"/>
</svg>
